<?xml version="1.0" encoding="utf-8"?>
<!-- Generator: Adobe Illustrator 21.0.2, SVG Export Plug-In . SVG Version: 6.00 Build 0)  -->
<svg version="1.1" id="Слой_1" xmlns="http://www.w3.org/2000/svg" xmlns:xlink="http://www.w3.org/1999/xlink" x="0px" y="0px"
	 viewBox="0 0 694.3 69.8" style="enable-background:new 0 0 694.3 69.8;" xml:space="preserve">
<style type="text/css">
	.st0{fill:#FFFFFF;}
</style>
<title>logo</title>
<g id="Слой_2">
	<g id="Слой_1-2">
		<path class="st0" d="M45.3,39.5v29H31.2V41.5c0-5.8-3.7-8.6-8.2-8.6c-5.2,0-8.8,3-8.8,9.7v25.8H0V21.2h14.2v4.4
			c2.5-3.5,7.3-5.8,13.5-5.8C37.2,19.9,45.3,26.7,45.3,39.5z"/>
		<path class="st0" d="M95.5,21.2v47.2H81.3V64c-2.6,3.5-7.3,5.8-13.5,5.8c-9.5,0-17.7-6.8-17.7-19.5v-29h14.2v26.9
			c0,5.8,3.7,8.6,8.2,8.6c5.2,0,8.8-3,8.8-9.7V21.2H95.5z"/>
		<path class="st0" d="M129.9,20.3v16.1c-5.8-0.9-14.2,1.4-14.2,10.8v21.3h-14.2V21.2h14.2v8.4C117.6,23.3,124,20.3,129.9,20.3z"/>
		<path class="st0" d="M203.1,39.5v29h-14.2V40.7c0-4.7-2.3-7.7-6.8-7.7c-4.7,0-7.4,3.3-7.4,8.9v26.6h-14.2V40.7
			c0-4.7-2.3-7.7-6.8-7.7c-4.7,0-7.4,3.3-7.4,8.9v26.6h-14.2V21.2h14.2v4.3c2.2-3.2,6.3-5.7,12.6-5.7c5.6,0,9.7,2.3,12.4,6.2
			c2.6-3.8,7-6.2,13.7-6.2C196,19.9,203.1,27.6,203.1,39.5z"/>
		<path class="st0" d="M253.2,21.2v47.2h-14.2V64c-2.6,3.5-7.3,5.8-13.5,5.8c-9.5,0-17.7-6.8-17.7-19.5v-29h14.2v26.9
			c0,5.8,3.7,8.6,8.2,8.6c5.2,0,8.8-3,8.8-9.7V21.2H253.2z"/>
		<path class="st0" d="M288.6,68.4l-15.1-20.9v20.9h-14.2V2.3h14.2v39.6l14.2-20.7h16.5L287,44.8l17.7,23.6H288.6z"/>
		<path class="st0" d="M351,39.5v29h-14.2V41.5c0-5.8-3.7-8.6-8.2-8.6c-5.2,0-8.8,3-8.8,9.7v25.8h-14.2V2.3h14.2v23.3
			c2.5-3.5,7.3-5.8,13.5-5.8C342.8,19.9,351,26.7,351,39.5z"/>
		<path class="st0" d="M404.9,21.2v47.2h-14.2V64c-3.1,3.6-7.7,5.8-14.1,5.8c-12.4,0-22.6-10.9-22.6-24.9s10.2-24.9,22.6-24.9
			c6.3,0,11,2.2,14.1,5.8v-4.4H404.9z M390.7,44.8c0-7.1-4.7-11.5-11.2-11.5s-11.2,4.4-11.2,11.5s4.7,11.5,11.2,11.5
			S390.7,51.9,390.7,44.8z"/>
		<path class="st0" d="M481.8,39.5v29h-14.2V40.7c0-4.7-2.3-7.7-6.8-7.7c-4.7,0-7.4,3.3-7.4,8.9v26.6h-14.2V40.7
			c0-4.7-2.3-7.7-6.8-7.7c-4.7,0-7.4,3.3-7.4,8.9v26.6H411V21.2h14.2v4.3c2.2-3.2,6.3-5.7,12.6-5.7c5.6,0,9.7,2.3,12.4,6.2
			c2.6-3.8,7-6.2,13.7-6.2C474.7,19.9,481.8,27.6,481.8,39.5z"/>
		<path class="st0" d="M511.3,57.1c3.4,0.1,6.7-1.2,9.1-3.6l11.3,6.5c-4.7,6.4-11.7,9.8-20.6,9.8c-16.1,0-26.1-10.9-26.1-24.9
			s10.2-24.9,25.1-24.9c13.8,0,24,10.7,24,24.9c0,1.9-0.2,3.8-0.6,5.7h-33.5C501.7,55.4,506.1,57.1,511.3,57.1z M520,39.9
			c-1.5-5.5-5.8-7.5-10-7.5c-5.4,0-9,2.6-10.3,7.5H520z"/>
		<path class="st0" d="M585.8,2.3v66.1h-14.2V64c-3.1,3.6-7.7,5.8-14.1,5.8c-12.4,0-22.5-10.9-22.5-24.9s10.2-24.9,22.6-24.9
			c6.3,0,11,2.2,14.1,5.8V2.3H585.8z M571.6,44.8c0-7.1-4.7-11.5-11.2-11.5s-11.2,4.4-11.2,11.5s4.7,11.5,11.2,11.5
			S571.6,51.9,571.6,44.8z"/>
		<path class="st0" d="M589.5,44.8c0-13.8,11.1-25,24.9-25.1c13.8,0,25,11.1,25.1,24.9c0,13.8-11.1,25-24.9,25.1c0,0,0,0-0.1,0
			c-13.7,0.1-24.9-10.8-25-24.5C589.5,45.1,589.5,45,589.5,44.8z M625.4,44.8c0-6.7-4.7-11.1-10.9-11.1s-10.9,4.4-10.9,11.1
			S608.4,56,614.6,56S625.4,51.5,625.4,44.8z"/>
		<path class="st0" d="M685.6,20.3v0.9h8.8v13.6h-8.8v33.6h-14.2V34.8h-12.3v33.6H645V34.8h-6.3V21.2h6.3C645,8,652.2,0.1,667.9,1
			v13.6c-5.3-0.5-8.8,1.1-8.8,6.6h12.3v-0.9c0-13.2,7.3-21.1,22.9-20.2v13.6C689,13.2,685.6,14.8,685.6,20.3z"/>
	</g>
</g>
</svg>
